<svg xmlns="http://www.w3.org/2000/svg" width="20" height="20" viewBox="0 0 20 20">
  <path style="stroke:none;fill-rule:nonzero;fill-opacity:1" d="M16 20a3.983 3.983 0 0 0 3.988-4L20 8c0-2.215-1.785-4-4-4s-4 1.785-4 4v8c0 2.215 1.785 4 4 4Zm8.105-4c-.558 0-1.027.398-1.105.945-.492 3.48-3.625 5.856-7 5.856s-6.508-2.36-7-5.856A1.114 1.114 0 0 0 7.895 16c-.696 0-1.227.613-1.133 1.293.613 3.96 3.945 7.066 7.906 7.668V28c0 .734.598 1.332 1.332 1.332.734 0 1.332-.598 1.332-1.332v-3.04c3.95-.573 7.293-3.706 7.906-7.667A1.141 1.141 0 0 0 24.105 16Zm0 0" />
</svg>